<svg width="120" height="14" viewBox="0 0 120 14" fill="none" xmlns="http://www.w3.org/2000/svg">
<g id="logo">
<g id="XMLID_234_">
<path id="XMLID_243_" d="M9.42298 1.52885V8.16346C9.42298 10.375 8.46144 11.2885 6.15375 11.2885C3.84606 11.2885 2.88452 10.375 2.88452 8.16346V1.24039H0.672983C0.528752 1.24039 0.384521 1.38462 0.384521 1.52885V8.25962C0.384521 11.9615 2.74029 13.2596 6.15375 13.2596C9.56721 13.2596 11.923 11.9615 11.923 8.25962V1.24039H9.71144C9.56721 1.24039 9.42298 1.33654 9.42298 1.52885Z" fill="black"/>
<path id="XMLID_242_" d="M41.5865 3.16346C41.7788 3.16346 41.8749 3.11539 41.923 2.97116L42.548 1.38462C42.5961 1.28846 42.548 1.24039 42.4519 1.24039H33.5096C32.6923 1.24039 32.3557 1.48077 32.3557 2.05769V12.3462C32.3557 12.8269 32.5961 13.0673 33.2211 13.0673H41.5384C41.7307 13.0673 41.8269 13.0192 41.8749 12.875L42.4999 11.2885C42.548 11.1923 42.4999 11.1442 42.4038 11.1442H34.8076V9.02885C34.8076 8.30769 35.1923 7.97116 36.298 7.97116H39.6153C39.8076 7.97116 39.9038 7.92308 39.9519 7.77885L40.5769 6.24039C40.6249 6.14423 40.5769 6.09616 40.4807 6.09616H34.8557V3.11539H41.5865V3.16346Z" fill="black"/>
<path id="XMLID_238_" fill-rule="evenodd" clip-rule="evenodd" d="M25.8652 6.81732C26.8269 6.28845 27.2114 5.375 27.2114 4.22116C27.2114 1.625 25.0962 1.24039 22.8845 1.24039H17.8364C17.019 1.24039 16.6826 1.48077 16.6826 2.05771V12.3462C16.6826 12.8269 16.9231 13.0673 17.5481 13.0673H23.75C26.1057 13.0673 27.7402 12.1538 27.7402 9.79807C27.7883 8.35577 27.2114 7.15384 25.8652 6.81732ZM19.1826 3.11539H23.0769C24.375 3.11539 24.7595 3.59616 24.7595 4.60577C24.7595 5.61539 24.375 6.09616 23.0769 6.09616H19.1826V3.11539ZM19.1826 11.1442H23.5576C24.9519 11.1442 25.3364 10.6635 25.3364 9.55768C25.3364 8.4519 24.9519 7.92307 23.5576 7.92307H20.6731C19.5671 7.92307 19.1826 8.25961 19.1826 8.98074V11.1442Z" fill="black"/>
<path id="XMLID_235_" fill-rule="evenodd" clip-rule="evenodd" d="M55.3845 8.30771L58.0288 12.875C58.0769 12.9231 58.0769 13.0673 57.9807 13.0673H55.7212C55.6018 13.0673 55.5381 13.0488 55.4836 13.0002C55.4504 12.9706 55.4209 12.9297 55.3845 12.875L52.9807 8.54807H50.8174C49.7114 8.54807 49.3269 8.88461 49.3269 9.60577V13.0673H47.1636C47.0996 13.0673 47.0356 13.039 46.9844 12.9949C46.9197 12.9395 46.875 12.8592 46.875 12.7788V2.05771C46.875 1.48077 47.2114 1.24039 48.0288 1.24039H53.0769C56.0095 1.24039 57.7886 2.00961 57.7886 4.89423C57.7886 7.10577 56.6826 7.97116 55.3845 8.30771ZM49.2788 6.72116H53.4133C54.9519 6.72116 55.2883 6.14423 55.2883 4.89423C55.2883 3.69232 54.9519 3.11539 53.4133 3.11539H49.2788V6.72116Z" fill="black"/>
</g>
<g id="XMLID_224_">
<path id="XMLID_232_" d="M76.4421 12.0096L76.394 13.0673H67.644V1.24039H76.0575L76.1056 2.34616H68.846V6.43269H75.096V7.39423H68.846V12.0096H76.4421Z" fill="#57AD56" stroke="#57AD56" stroke-width="0.25"/>
<g id="XMLID_229_">
<path fill-rule="evenodd" clip-rule="evenodd" d="M83.7019 9.99039H90.6731L92.019 13.0673H93.3652L87.9326 1.24039H86.5383L81.0576 13.0673H82.3557L83.7019 9.99039ZM84.1345 8.98077L86.6826 3.25964L87.1633 2.05771H87.2114L87.6921 3.25964L90.1921 8.98077H84.1345Z" fill="#57AD56"/>
<path d="M90.6731 9.99039L90.7876 9.94029L90.7549 9.86539H90.6731V9.99039ZM83.7019 9.99039V9.86539H83.6202L83.5874 9.94028L83.7019 9.99039ZM92.019 13.0673L91.9045 13.1174L91.9373 13.1923H92.019V13.0673ZM93.3652 13.0673V13.1923H93.5602L93.4788 13.0151L93.3652 13.0673ZM87.9326 1.24039L88.0462 1.18821L88.0128 1.11539H87.9326V1.24039ZM86.5383 1.24039V1.11539H86.4585L86.4249 1.18783L86.5383 1.24039ZM81.0576 13.0673L80.9442 13.0148L80.8619 13.1923H81.0576V13.0673ZM82.3557 13.0673V13.1923H82.4375L82.4702 13.1174L82.3557 13.0673ZM86.6826 3.25964L86.7969 3.31054L86.7987 3.30606L86.6826 3.25964ZM84.1345 8.98077L84.0203 8.92992L83.942 9.10577H84.1345V8.98077ZM87.1633 2.05771V1.93271H87.0787L87.0473 2.01129L87.1633 2.05771ZM87.2114 2.05771L87.3275 2.01129L87.2961 1.93271H87.2114V2.05771ZM87.6921 3.25964L87.576 3.30609L87.5776 3.3097L87.6921 3.25964ZM90.1921 8.98077V9.10577H90.3832L90.3067 8.93072L90.1921 8.98077ZM90.6731 9.86539H83.7019V10.1154H90.6731V9.86539ZM92.1336 13.0172L90.7876 9.94029L90.5586 10.0405L91.9045 13.1174L92.1336 13.0172ZM93.3652 12.9423H92.019V13.1923H93.3652V12.9423ZM87.819 1.29256L93.2516 13.1195L93.4788 13.0151L88.0462 1.18821L87.819 1.29256ZM86.5383 1.36539H87.9326V1.11539H86.5383V1.36539ZM81.171 13.1199L86.6517 1.29294L86.4249 1.18783L80.9442 13.0148L81.171 13.1199ZM82.3557 12.9423H81.0576V13.1923H82.3557V12.9423ZM83.5874 9.94028L82.2412 13.0172L82.4702 13.1174L83.8164 10.0405L83.5874 9.94028ZM86.5684 3.20879L84.0203 8.92992L84.2487 9.03163L86.7968 3.3105L86.5684 3.20879ZM87.0473 2.01129L86.5666 3.21322L86.7987 3.30606L87.2794 2.10413L87.0473 2.01129ZM87.2114 1.93271H87.1633V2.18271H87.2114V1.93271ZM87.8082 3.21322L87.3275 2.01129L87.0954 2.10413L87.5761 3.30606L87.8082 3.21322ZM90.3067 8.93072L87.8067 3.20959L87.5776 3.3097L90.0776 9.03083L90.3067 8.93072ZM84.1345 9.10577H90.1921V8.85577H84.1345V9.10577Z" fill="#57AD56"/>
</g>
<path id="XMLID_227_" d="M102.019 2.34616V13.0673H100.817V2.34616H96.394L96.4421 1.24039H106.49V2.34616H102.019Z" fill="#57AD56" stroke="#57AD56" stroke-width="0.25"/>
<path id="XMLID_225_" d="M115.048 13.3077C113.413 13.3077 112.115 12.9231 111.058 12.2981L111.25 11.2404C112.356 11.8654 113.606 12.25 115.096 12.25C117.308 12.25 118.461 11.2404 118.461 9.79808C118.461 6.67308 111.25 8.30769 111.25 4.26923C111.25 2.53846 112.548 1 115.577 1C116.971 1 118.221 1.24038 119.231 1.72115L119.038 2.73077C117.933 2.29808 116.875 2.05769 115.625 2.05769C113.269 2.05769 112.404 3.11538 112.404 4.17308C112.404 7.15385 119.615 5.47115 119.615 9.70192C119.567 11.8173 118.029 13.3077 115.048 13.3077Z" fill="#57AD56" stroke="#57AD56" stroke-width="0.25"/>
</g>
</g>
</svg>
